<svg width="39" height="40" viewBox="0 0 39 40" fill="none" xmlns="http://www.w3.org/2000/svg">
<path d="M26.6207 11.6668C27.4896 10.5424 27.3439 8.89092 26.2627 7.95425C25.147 6.98777 23.4961 7.17553 22.6016 8.33316L10.01 24.6281L5.71448 21.2169C4.55687 20.2976 2.91665 20.5641 2.07288 21.7553C1.25242 22.9136 1.45971 24.5587 2.58183 25.4498L7.67095 29.4911C9.46737 30.9177 12.0085 30.5767 13.4095 28.7636L26.6207 11.6668Z" stroke="white" stroke-width="2" stroke-linecap="round"/>
<mask id="path-2-outside-1_11_3" maskUnits="userSpaceOnUse" x="13.865" y="6.99994" width="25" height="24" fill="black">
<rect fill="white" x="13.865" y="6.99994" width="25" height="24"/>
<path fill-rule="evenodd" clip-rule="evenodd" d="M16.865 25.7491L20.0185 28.4203C20.8882 29.157 22.1968 29.019 22.8938 28.1171L36.4209 10.6114C36.7586 10.1744 36.6781 9.5464 36.2411 9.2087C35.8041 8.87101 35.176 8.95153 34.8383 9.38854L21.3112 26.8942L18.0891 24.1649L16.865 25.7491Z"/>
</mask>
<path d="M20.0185 28.4203L18.7258 29.9464L18.7258 29.9464L20.0185 28.4203ZM16.865 25.7491L15.2824 24.5262L14.1132 26.0393L15.5723 27.2752L16.865 25.7491ZM22.8938 28.1171L21.3112 26.8942L22.8938 28.1171ZM36.4209 10.6114L34.8383 9.38854V9.38854L36.4209 10.6114ZM36.2411 9.2087L37.464 7.62613L37.464 7.62613L36.2411 9.2087ZM34.8383 9.38854L36.4209 10.6114L36.4209 10.6114L34.8383 9.38854ZM21.3112 26.8942L20.0185 28.4203L21.6147 29.7724L22.8938 28.1171L21.3112 26.8942ZM18.0891 24.1649L19.3818 22.6388L17.7856 21.2868L16.5065 22.942L18.0891 24.1649ZM21.3112 26.8942L18.1576 24.223L15.5723 27.2752L18.7258 29.9464L21.3112 26.8942ZM21.3112 26.8942H21.3112L18.7258 29.9464C20.4653 31.4198 23.0825 31.1438 24.4763 29.34L21.3112 26.8942ZM34.8383 9.38854L21.3112 26.8942L24.4763 29.34L38.0035 11.8343L34.8383 9.38854ZM35.0182 10.7913C34.5812 10.4536 34.5006 9.82555 34.8383 9.38854L38.0035 11.8343C39.0166 10.5233 38.775 8.63921 37.464 7.62613L35.0182 10.7913ZM36.4209 10.6114C36.0832 11.0485 35.4552 11.129 35.0182 10.7913L37.464 7.62613C36.1529 6.61305 34.2688 6.8546 33.2558 8.16565L36.4209 10.6114ZM22.8938 28.1171L36.4209 10.6114L33.2558 8.16564L19.7286 25.6713L22.8938 28.1171ZM16.7964 25.691L20.0185 28.4203L22.6039 25.3681L19.3818 22.6388L16.7964 25.691ZM16.5065 22.942L15.2824 24.5262L18.4475 26.972L19.6717 25.3878L16.5065 22.942Z" fill="white" mask="url(#path-2-outside-1_11_3)"/>
</svg>
